<svg version="1.1" id="Layer_1" xmlns="http://www.w3.org/2000/svg" xmlns:xlink="http://www.w3.org/1999/xlink" x="0px" y="0px"
	 width="100%" viewBox="0 0 300 168" enable-background="new 0 0 300 168" xml:space="preserve">
<path fill="#000000" opacity="1.000000" stroke="none" 
	d="
M227.000000,169.000000 
	C152.666672,169.000000 78.833298,168.969666 5.000191,169.096298 
	C1.575759,169.102173 0.893744,168.424988 0.902677,164.999771 
	C1.041764,111.666809 1.041762,58.333263 0.902687,5.000300 
	C0.893756,1.575245 1.575849,0.900212 5.000070,0.904388 
	C102.333244,1.023106 199.666626,1.023100 296.999786,0.904407 
	C300.423706,0.900232 301.106232,1.574833 301.097321,5.000170 
	C300.958221,58.333130 300.958252,111.666672 301.097321,164.999634 
	C301.106232,168.424576 300.428741,169.129883 296.999237,169.101181 
	C273.834167,168.907196 250.666702,169.000000 227.000000,169.000000 
z"/>
<path fill="#732B23" opacity="1.000000" stroke="none" 
	d="
M178.565125,112.889931 
	C180.586563,114.796097 179.444244,116.648338 178.700333,118.096359 
	C174.155991,126.942055 175.856110,134.157074 184.155609,139.590897 
	C187.095398,141.515640 187.396835,143.962372 186.445480,146.822678 
	C185.403351,149.955963 182.806549,150.537582 179.781357,150.907501 
	C172.867249,151.752914 166.425400,149.108475 159.709030,148.508545 
	C155.991791,148.176514 154.070724,144.862091 154.201691,140.802322 
	C154.248489,139.351776 155.345108,137.975479 154.693588,136.248779 
	C156.562439,134.409393 158.142685,135.506241 159.748535,136.170853 
	C161.648911,136.957336 163.532791,138.161942 165.821671,136.286499 
	C166.557541,135.563416 167.107391,135.144409 167.860916,134.426331 
	C169.512070,132.881073 168.798965,131.494980 168.344315,130.068451 
	C165.477692,121.073624 169.002487,114.907143 178.565125,112.889931 
z"/>
<path fill="#E796E9" opacity="1.000000" stroke="none" 
	d="
M149.740173,80.244278 
	C149.896622,76.039291 149.858627,72.227432 149.430176,68.242088 
	C147.962021,66.517937 149.375839,65.289368 149.698166,63.559040 
	C151.283295,60.188984 152.081604,56.968781 152.688446,53.316170 
	C152.866135,52.743710 152.968628,52.525562 153.301239,52.029472 
	C155.205673,50.638596 156.788315,51.006195 157.770691,52.550743 
	C160.182312,56.342495 163.932678,58.189522 168.085770,60.162270 
	C169.375595,61.482029 169.831024,62.924095 170.844818,64.451355 
	C171.113708,65.286896 171.188797,65.781532 171.191956,66.659958 
	C170.087952,69.017525 171.250916,70.882828 171.536102,73.182205 
	C171.939377,74.917084 171.817245,76.262108 171.432236,78.013489 
	C169.790146,81.552353 171.596512,86.621468 165.629105,87.442566 
	C163.154114,87.534889 161.117126,87.500664 158.643860,87.403259 
	C154.702774,85.917168 149.406326,86.776871 149.740173,80.244278 
z"/>
<path fill="#1C4589" opacity="1.000000" stroke="none" 
	d="
M171.730774,18.155212 
	C172.579651,14.386390 174.470657,11.441148 176.132721,8.454515 
	C179.533173,2.344146 191.665222,2.183898 195.379929,8.389241 
	C198.252167,13.187263 200.846832,18.406588 196.403305,23.949627 
	C195.387177,25.217192 194.852585,26.870779 193.914856,28.653809 
	C190.243286,31.477674 186.776199,30.962950 183.057251,28.592312 
	C182.452148,27.725740 182.215546,27.114233 182.234558,26.433107 
	C182.447754,18.794949 181.910019,18.288633 174.424271,19.234665 
	C173.774902,19.316730 173.144714,19.539154 172.158524,19.279652 
	C171.747757,18.904428 171.654800,18.686308 171.730774,18.155212 
z"/>
<path fill="#7A92E5" opacity="1.000000" stroke="none" 
	d="
M153.500931,52.772156 
	C154.045761,56.733063 153.641144,60.324669 151.429291,63.890396 
	C148.970367,66.711868 146.877853,66.109230 144.961151,63.845486 
	C142.505493,60.945190 140.016083,58.047890 138.053528,54.788754 
	C136.860565,52.807648 137.252838,55.946281 136.246521,54.960464 
	C136.628128,47.595032 140.646774,41.832565 143.641205,35.541702 
	C146.604309,29.316664 152.897278,27.301348 156.922256,22.620909 
	C157.353561,22.119366 158.428238,22.171103 159.568420,22.036144 
	C160.223618,26.183512 158.198792,30.030121 158.754272,34.487007 
	C158.574997,36.484528 157.371719,37.325245 156.148880,38.167168 
	C150.987091,41.720985 149.759888,45.953148 152.460342,51.991714 
	C152.925339,52.272484 153.097031,52.407059 153.500931,52.772156 
z"/>
<path fill="#9B678E" opacity="1.000000" stroke="none" 
	d="
M115.374619,87.225449 
	C116.367836,84.971695 117.805466,83.506645 120.280045,82.770546 
	C123.025917,81.953751 125.837616,80.641006 128.031921,78.830635 
	C133.227737,74.543915 137.924103,75.850822 142.878296,79.595711 
	C143.551987,82.766510 139.478378,86.390381 142.679169,88.092705 
	C146.563889,90.158768 151.432663,91.063324 156.036591,88.880798 
	C157.858566,88.017075 159.681778,86.029755 161.828796,88.977341 
	C161.152283,95.307320 157.083206,98.650192 151.494064,97.208382 
	C146.991943,96.046982 142.457611,95.861633 137.508667,95.432312 
	C129.228149,94.765327 121.986862,92.360909 115.374619,87.225449 
z"/>
<path fill="#AC2E9E" opacity="1.000000" stroke="none" 
	d="
M189.228729,61.417286 
	C187.011307,63.332607 188.643051,65.760452 187.346161,67.825363 
	C181.928101,70.604370 177.832855,70.152939 174.014267,66.479111 
	C172.466522,64.990044 170.751160,63.685253 169.059357,61.763531 
	C165.255203,57.417843 167.915192,53.627636 169.262314,49.809685 
	C169.871704,48.082573 170.631943,46.412899 172.259460,44.804291 
	C173.861877,43.812077 175.203934,43.838596 176.970398,44.320953 
	C179.559647,44.581104 181.574661,45.256363 183.638947,46.840900 
	C185.204193,49.941227 187.102554,52.401882 188.488235,55.153133 
	C189.432098,57.027130 190.594910,58.886448 189.228729,61.417286 
z"/>
<path fill="#AC63EB" opacity="1.000000" stroke="none" 
	d="
M158.192535,35.262829 
	C156.450851,30.662933 155.811981,26.393915 159.755554,22.413204 
	C162.025543,21.583118 163.280991,19.059097 165.988602,19.379118 
	C167.394241,17.875887 168.990692,18.810677 170.716492,18.285522 
	C171.050385,18.118752 171.480621,17.994267 171.690155,17.918251 
	C171.899689,17.842236 171.892838,18.166754 171.954407,18.316917 
	C175.460434,19.629576 178.406525,21.377474 179.807922,25.394161 
	C179.139832,29.299904 180.502228,31.903849 183.675507,33.401043 
	C186.528763,34.747250 187.901672,36.740181 186.500336,39.665020 
	C184.915375,42.973087 182.039871,42.664433 179.339798,41.226952 
	C176.972305,39.966537 175.089569,39.492691 173.731049,42.857971 
	C168.404541,43.777969 165.521301,40.112427 167.036926,34.936150 
	C167.667145,32.783798 169.480621,30.980295 168.936859,28.162579 
	C164.017090,28.341257 163.368103,33.758949 159.518799,35.539150 
	C158.937805,35.566582 158.704773,35.524490 158.192535,35.262829 
z"/>
<path fill="#B486D0" opacity="1.000000" stroke="none" 
	d="
M169.994293,78.412689 
	C170.006592,76.614761 170.021454,75.217049 170.055984,73.400452 
	C171.539856,71.223145 170.290726,69.468323 170.021057,67.368622 
	C169.993073,66.568504 170.012665,66.111923 170.076599,65.315353 
	C171.820053,63.687809 173.002884,64.859970 173.927353,65.995644 
	C176.263306,68.865219 179.306625,69.743530 182.799835,69.452110 
	C184.476364,69.312256 185.777420,69.608475 186.184097,71.755585 
	C187.841461,78.298050 185.666031,83.780457 183.088303,89.554077 
	C183.743118,91.247971 183.414459,92.635902 183.412506,94.394493 
	C174.033203,92.951073 170.006546,88.129509 169.994293,78.412689 
z"/>
<path fill="#9A5AD3" opacity="1.000000" stroke="none" 
	d="
M172.774078,43.298698 
	C173.332504,41.109558 172.095139,38.708385 174.170670,37.494465 
	C176.311401,36.242409 177.789001,38.415272 179.426086,39.331631 
	C181.448715,40.463806 183.466660,42.327507 185.254196,39.271126 
	C186.847229,36.547325 184.798355,35.746578 182.740204,34.590973 
	C179.783813,32.931019 177.487503,30.535185 178.595978,26.313133 
	C179.395782,25.405052 180.101578,25.378391 181.153351,25.909264 
	C182.292801,29.265970 184.163849,30.642521 187.529694,30.123793 
	C189.430435,29.830858 191.395142,29.845755 193.562988,29.822659 
	C194.492065,30.887831 195.176071,31.699934 195.832108,32.830826 
	C195.875259,34.837215 195.131226,36.284695 194.512909,37.789845 
	C193.336487,40.653542 193.893265,42.874306 197.393646,44.107262 
	C198.074356,44.544907 198.353790,44.906013 198.699463,45.643875 
	C198.840500,45.961319 198.936066,46.439053 198.888367,46.677940 
	C195.668518,51.291771 191.617798,49.560699 188.067780,47.989391 
	C184.672104,46.486393 181.261459,45.691547 177.301422,45.620296 
	C175.902512,45.593105 174.844101,45.365608 173.462646,45.087051 
	C172.716354,44.664078 172.524353,44.197102 172.774078,43.298698 
z"/>
<path fill="#725C63" opacity="1.000000" stroke="none" 
	d="
M169.260742,135.536133 
	C168.496414,136.162735 167.979233,136.498184 167.191315,136.980865 
	C161.897995,138.576416 159.257507,137.485306 156.208267,132.362305 
	C159.344818,127.158852 157.382065,121.529282 158.822968,116.073013 
	C160.965668,115.172058 161.075394,113.597710 161.636093,112.026230 
	C163.171890,107.721870 165.021988,103.452766 171.055695,103.664734 
	C173.479004,108.862526 171.408600,113.364807 169.157776,117.472145 
	C166.564651,122.204124 165.268509,126.492142 169.096420,131.076019 
	C170.134811,132.319473 170.221344,133.771011 169.260742,135.536133 
z"/>
<path fill="#C38FCF" opacity="1.000000" stroke="none" 
	d="
M169.742249,78.302719 
	C171.067749,79.028587 171.075012,80.370041 170.982040,81.670677 
	C170.633850,86.541771 173.417816,89.162102 177.698273,89.794411 
	C180.764297,90.247314 182.007614,91.595650 182.536560,94.651627 
	C182.980270,95.072479 183.232986,95.196640 183.317551,95.708221 
	C182.775772,97.076233 183.218430,97.785667 183.881866,98.737282 
	C183.238937,101.286720 181.732605,102.700943 179.494080,102.267395 
	C175.039597,101.404663 170.619675,101.411674 166.144409,101.819122 
	C165.119873,101.912399 164.313644,101.144920 163.441452,99.984619 
	C162.866257,98.861458 162.758484,98.053345 162.878448,96.836487 
	C165.386719,93.458572 165.517715,90.089569 164.767273,86.267334 
	C170.654587,86.055298 168.106812,81.128555 169.742249,78.302719 
z"/>
<path fill="#6C4050" opacity="1.000000" stroke="none" 
	d="
M169.364243,135.768585 
	C169.050781,133.971100 169.023758,131.969788 167.298798,130.913544 
	C162.345490,127.880455 164.005203,123.454735 165.837067,120.151024 
	C168.552094,115.254509 169.941055,110.148224 170.967346,104.404533 
	C175.189423,101.315285 178.941986,103.225067 182.842148,105.607300 
	C182.231125,108.500992 181.558731,111.008003 179.258759,112.972382 
	C177.161224,114.277542 175.399689,115.471336 173.678818,116.721100 
	C168.664505,120.362648 167.676849,123.602325 169.773346,129.493256 
	C170.516190,131.580566 172.182480,133.659622 169.364243,135.768585 
z"/>
<path fill="#B486D0" opacity="1.000000" stroke="none" 
	d="
M135.610962,54.985092 
	C137.238846,52.711311 138.706894,53.018604 140.036758,54.653343 
	C142.232651,57.352665 144.444168,60.057049 146.392700,62.933006 
	C147.524506,64.603493 148.639359,65.276886 150.838104,64.265686 
	C150.542480,65.266151 149.906036,66.366539 149.154663,67.767761 
	C143.505585,71.503204 140.296158,70.948601 135.008362,65.368408 
	C134.247513,63.244503 134.433319,61.419392 134.776794,59.245850 
	C134.946533,57.663265 135.117447,56.427582 135.610962,54.985092 
z"/>
<path fill="#732B23" opacity="1.000000" stroke="none" 
	d="
M135.060760,98.423340 
	C130.755112,100.814636 127.141411,103.874229 122.220970,103.851189 
	C115.918365,103.821671 113.428703,101.401924 113.229141,94.494232 
	C120.354813,91.542969 131.438141,93.557213 135.060760,98.423340 
z"/>
<path fill="#725C63" opacity="1.000000" stroke="none" 
	d="
M164.571991,95.581024 
	C164.210434,96.708618 164.051025,97.455383 163.894958,98.585373 
	C163.754288,99.161636 163.610245,99.354660 163.162170,99.742378 
	C155.581116,102.724823 148.612167,100.478798 141.282196,98.734871 
	C139.870804,98.541832 138.795700,98.251183 137.377960,97.956673 
	C136.021469,97.062317 135.970764,95.996330 136.738281,94.495956 
	C141.347916,93.110138 145.762344,93.542435 149.856400,94.749817 
	C155.867157,96.522453 158.162125,95.782249 160.949097,89.276260 
	C165.468826,88.347649 166.074188,89.350098 164.571991,95.581024 
z"/>
<path fill="#B486D0" opacity="1.000000" stroke="none" 
	d="
M164.670273,95.845078 
	C163.648819,93.562904 165.992905,90.005165 161.348053,88.931198 
	C160.551788,88.732468 159.844360,88.295494 159.741440,88.408592 
	C155.855209,92.679558 151.183884,91.945320 146.152618,91.129913 
	C140.128540,90.153618 138.781525,88.514671 140.923538,82.792267 
	C141.255417,81.905655 141.924316,81.145203 142.740753,80.119843 
	C143.044144,79.913292 143.523972,80.022728 143.758698,80.096664 
	C145.852127,88.129669 152.352692,85.329323 157.715973,85.912308 
	C160.077591,85.904228 162.102493,85.929398 164.561005,85.973709 
	C166.333969,89.241318 168.284973,92.491287 164.670273,95.845078 
z"/>
<path fill="#6C4050" opacity="1.000000" stroke="none" 
	d="
M136.605621,94.119080 
	C137.023804,95.171265 137.037537,96.181396 137.043304,97.572174 
	C136.738892,98.655090 136.163559,98.878586 135.123352,98.804688 
	C130.169357,95.972198 125.131386,94.901405 119.788940,94.963097 
	C117.845757,94.985527 115.858017,95.223503 113.630051,94.238098 
	C113.243904,91.809746 114.114090,89.744278 114.999817,87.292496 
	C120.566360,88.980782 126.069984,90.933456 131.466522,93.147156 
	C133.049316,93.796432 134.580124,93.989952 136.605621,94.119080 
z"/>
<path fill="#1C4589" opacity="1.000000" stroke="none" 
	d="
M189.321777,61.654270 
	C188.625610,56.645805 184.103271,53.446159 183.050323,48.299408 
	C183.722061,47.123260 184.807999,46.621742 185.630341,47.075951 
	C189.345947,49.128193 193.522095,48.679634 197.739014,49.840981 
	C199.131439,56.847588 194.562576,59.341698 189.321777,61.654270 
z"/>
<path fill="#9B678E" opacity="1.000000" stroke="none" 
	d="
M183.305984,105.830704 
	C179.420288,104.545746 175.618744,104.278366 171.401535,103.982346 
	C166.433990,105.175133 164.401474,108.734184 163.031372,112.717079 
	C162.437027,114.444885 161.953323,115.851913 159.485138,115.803650 
	C160.060669,111.755280 160.998230,107.748650 161.885345,103.415680 
	C161.732727,102.499718 161.924576,102.030502 162.804062,101.571960 
	C169.836441,100.852470 176.473160,101.180489 183.456818,101.732841 
	C183.741898,103.169365 183.680008,104.396095 183.305984,105.830704 
z"/>
<path fill="#C38FCF" opacity="1.000000" stroke="none" 
	d="
M157.764679,85.662979 
	C154.952637,87.644722 151.408386,87.710449 148.104218,87.658546 
	C143.123093,87.580315 142.496552,86.181458 143.923981,80.543549 
	C145.750122,79.418137 147.518295,82.448555 149.602478,80.002884 
	C150.668854,84.115227 154.058472,84.800316 157.764679,85.662979 
z"/>
<path fill="#6C4050" opacity="1.000000" stroke="none" 
	d="
M162.901489,101.683800 
	C162.251831,102.097717 162.087006,102.352402 161.922241,102.876495 
	C154.733780,103.679131 148.087952,101.910782 141.286194,99.010048 
	C141.984863,96.497940 144.130264,97.747009 145.159515,98.170883 
	C149.928131,100.134735 154.535126,100.522606 159.354172,98.471382 
	C160.103394,98.152473 161.230225,98.720734 162.533997,98.931168 
	C163.616119,99.713104 163.694595,100.551109 162.901489,101.683800 
z"/>
<path fill="#AC63EB" opacity="1.000000" stroke="none" 
	d="
M198.117249,44.810448 
	C192.221329,45.262135 190.183823,42.273819 192.582565,37.078407 
	C193.185181,35.773254 194.382568,34.742714 195.555374,33.367790 
	C197.666107,34.702488 196.602463,37.352753 198.039764,39.440681 
	C198.454956,41.386765 198.522110,42.986366 198.117249,44.810448 
z"/>
<path fill="#9A5AD3" opacity="1.000000" stroke="none" 
	d="
M186.359146,71.907639 
	C185.751968,71.722214 185.401779,70.967056 185.166031,71.001236 
	C179.183578,71.868782 174.960632,68.543640 170.454788,65.024780 
	C168.764862,64.324585 168.031433,63.275448 168.053436,61.401855 
	C168.267456,60.868454 168.481140,60.676430 169.052185,60.725185 
	C170.242889,61.462555 171.348969,61.764202 171.865616,62.487114 
	C175.434555,67.480949 180.318726,68.911850 186.581284,68.056885 
	C186.910675,69.272400 186.790070,70.489037 186.359146,71.907639 
z"/>
<path fill="#644EB0" opacity="1.000000" stroke="none" 
	d="
M198.321640,49.969189 
	C193.160599,50.289593 188.339981,50.112217 183.401825,48.021591 
	C181.241318,47.277954 179.465118,46.619041 177.324921,45.890366 
	C180.607880,42.970394 184.260162,44.955204 187.637802,46.198639 
	C191.141922,47.488644 194.429520,48.675323 198.460739,47.001926 
	C198.767349,47.862827 198.694016,48.808834 198.321640,49.969189 
z"/>
<path fill="#B486D0" opacity="1.000000" stroke="none" 
	d="
M162.864960,102.118111 
	C162.647385,101.172890 162.790710,100.446190 162.909790,99.351540 
	C163.054550,98.982063 163.223541,98.980537 163.645416,98.973816 
	C164.711792,99.500938 165.623932,100.596809 166.322769,100.474464 
	C170.981415,99.658852 175.544830,99.953362 180.162277,100.794922 
	C181.072678,100.960838 182.204544,99.911568 183.539978,99.243774 
	C184.005814,99.837021 185.516586,100.485550 183.931900,101.674210 
	C181.554291,102.665512 179.360031,102.977257 176.985153,102.178360 
	C172.418625,100.642197 167.833893,103.470612 162.864960,102.118111 
z"/>
<path fill="#644EB0" opacity="1.000000" stroke="none" 
	d="
M193.812012,29.795509 
	C191.567078,30.527914 189.295425,30.866146 187.092224,31.458740 
	C183.714218,32.367313 181.681732,31.282497 180.981232,27.430113 
	C181.398453,26.626171 181.931839,26.484735 182.818024,26.975704 
	C186.186172,28.907686 189.511475,29.158745 193.319031,28.989613 
	C193.760880,29.145699 193.788437,29.330490 193.812012,29.795509 
z"/>
<path fill="#6C4050" opacity="1.000000" stroke="none" 
	d="
M155.943146,132.300568 
	C159.061768,134.415283 161.652817,137.612320 166.531677,137.086029 
	C165.540359,140.163620 163.129364,138.968628 161.057068,138.386230 
	C159.187302,137.860748 157.440948,136.896194 155.265198,136.071960 
	C155.192383,134.888138 155.494537,133.757645 155.943146,132.300568 
z"/>
<path fill="#7A92E5" opacity="1.000000" stroke="none" 
	d="
M197.982300,45.202877 
	C197.839355,43.492172 197.840271,41.963200 197.947845,40.122581 
	C199.867996,41.327240 198.677078,43.373943 198.919113,45.557556 
	C198.559402,45.822353 198.321289,45.630116 197.982300,45.202877 
z"/>
<path fill="#E796E9" opacity="1.000000" stroke="none" 
	d="
M134.438431,59.099087 
	C135.892410,60.663002 134.813950,62.521236 134.919556,64.693527 
	C133.022476,63.339314 134.150635,61.244740 134.438431,59.099087 
z"/>
<path fill="#E796E9" opacity="1.000000" stroke="none" 
	d="
M183.503082,95.922256 
	C183.075211,95.906029 183.001022,95.716408 182.827209,95.237556 
	C182.819366,93.550308 182.911148,92.152290 183.083862,90.342377 
	C184.970078,91.682686 183.887634,93.778305 183.503082,95.922256 
z"/>
<path fill="#E796E9" opacity="1.000000" stroke="none" 
	d="
M170.644821,18.026199 
	C169.985413,19.762974 168.334976,19.000141 166.522034,19.125423 
	C166.888901,16.592794 168.918152,18.482845 170.644821,18.026199 
z"/>
<path fill="#C94AE5" opacity="1.000000" stroke="none" 
	d="
M169.313385,60.607346 
	C169.183655,60.985508 168.957764,61.005047 168.392822,61.042526 
	C162.600647,60.505367 158.557693,57.932941 156.277969,52.833912 
	C155.955643,52.112999 155.314026,52.061840 154.344360,52.131046 
	C152.604431,48.476978 154.364563,44.999020 154.923645,41.082527 
	C155.935364,38.730827 157.889740,37.453327 158.990051,35.191299 
	C161.409378,31.441826 163.252609,27.652481 167.357468,25.844355 
	C168.610626,25.292356 169.841110,24.763180 171.040085,25.903322 
	C172.044754,26.858706 171.866806,27.994230 171.438034,29.131363 
	C170.912094,30.526159 170.600204,32.079899 169.770462,33.267864 
	C166.781296,37.547562 167.719116,40.642578 172.634125,42.914261 
	C173.008118,43.423939 173.031662,43.885525 173.097397,44.691551 
	C172.032776,48.115517 171.232178,51.356941 169.717911,54.221046 
	C168.597519,56.340191 168.499954,58.164852 169.313385,60.607346 
z"/>
<path fill="#1C4589" opacity="1.000000" stroke="none" 
	d="
M155.775787,40.795326 
	C155.428116,44.468811 155.639648,48.128010 154.084106,51.809425 
	C154.044098,52.178967 153.886795,52.588280 153.809967,52.795479 
	C153.733154,53.002674 153.382416,52.900948 153.204788,52.858620 
	C149.612228,47.690556 150.493042,43.010460 155.775787,40.795326 
z"/>
<path fill="#C38FCF" opacity="1.000000" stroke="none" 
	d="
M169.736206,67.275612 
	C172.343887,68.667313 172.875793,70.552353 170.405273,72.885979 
	C169.823456,71.169426 168.360519,69.485275 169.736206,67.275612 
z"/>
<path fill="#7A92E5" opacity="1.000000" stroke="none" 
	d="
M183.260834,26.964579 
	C182.619431,27.223581 182.145477,27.130947 181.306976,27.048922 
	C180.433701,26.741827 179.924957,26.424124 179.103226,26.068058 
	C177.227341,23.148968 174.447403,21.423851 172.133911,18.805452 
	C173.768570,17.460588 175.606354,16.813484 177.675858,16.867739 
	C180.122818,16.931892 182.732407,16.335840 184.207611,19.208344 
	C185.582123,21.884808 185.269211,24.311214 183.260834,26.964579 
z"/>
<path fill="#644EB0" opacity="1.000000" stroke="none" 
	d="
M156.567200,40.951939 
	C151.458023,43.583858 153.556686,48.144794 153.039017,52.383591 
	C152.509155,54.862766 151.793533,54.912998 150.591949,53.189869 
	C147.087708,48.164665 149.618027,39.195133 155.288925,36.704384 
	C156.042755,36.373283 156.752457,35.941719 157.697968,35.299973 
	C158.141556,35.041069 158.369781,35.038879 158.942825,35.014034 
	C159.011826,37.165852 159.180267,39.519085 156.567200,40.951939 
z"/>
<path fill="#B486D0" opacity="1.000000" stroke="none" 
	d="
M130.822296,89.024277 
	C129.875946,87.044113 129.791901,85.399582 131.669586,84.514786 
	C133.218765,83.784790 134.612427,84.591301 135.498169,85.885811 
	C136.338501,87.113960 135.889008,88.455246 135.087082,89.561325 
	C133.665665,91.521858 132.317627,90.624413 130.822296,89.024277 
z"/>
</svg>